<svg width="53" height="55" viewBox="0 0 53 55" fill="none" xmlns="http://www.w3.org/2000/svg">
<path d="M18.6792 8.59392C13.0606 8.59392 8.49057 13.2196 8.49057 18.9066C8.49057 19.8562 9.25047 20.6254 10.1887 20.6254C11.1269 20.6254 11.8868 19.8562 11.8868 18.9066C11.8868 15.1146 14.9349 12.0315 18.6792 12.0315C19.6175 12.0315 20.3774 11.2623 20.3774 10.3127C20.3774 9.36307 19.6175 8.59392 18.6792 8.59392ZM10.195 49.3259C10.195 49.6643 10.2937 49.994 10.4795 50.2755L13.0808 54.233C13.396 54.7121 13.9267 55 14.4945 55H22.863C23.4318 55 23.9625 54.7121 24.2767 54.233L26.8779 50.2755C27.0626 49.994 27.1613 49.6632 27.1624 49.3259L27.1677 44.6873H10.1908L10.195 49.3259ZM18.6792 0C7.82406 0 0 8.91297 0 18.9066C0 23.673 1.74587 28.0215 4.62311 31.3442C6.38915 33.3841 9.1592 37.6607 10.1866 41.2444V41.2508H15.2809V41.2379C15.2798 40.7255 15.2045 40.2163 15.0527 39.7265C14.4594 37.8132 12.6308 32.7686 8.45448 27.9453C6.27453 25.4283 5.1092 22.2357 5.09965 18.9066C5.07842 10.9959 11.4325 5.15635 18.6792 5.15635C26.17 5.15635 32.2642 11.3246 32.2642 18.9066C32.2642 22.2335 31.0712 25.4434 28.9051 27.9453C24.7542 32.7375 22.9171 37.7713 22.3143 39.7039C22.1587 40.2008 22.0792 40.7188 22.0787 41.2401V41.2508H27.173V41.2454C28.2004 37.6607 30.9704 33.3842 32.7364 31.3452C35.6126 28.0215 37.3585 23.673 37.3585 18.9066C37.3585 8.46501 28.9953 0 18.6792 0Z" fill="url(#paint0_linear)"/>
<path d="M51.7957 28.3734C51.5839 27.9174 50.9785 27.8992 50.7249 28.3296C49.552 30.2958 47.452 31.5214 45.0531 31.5214H42.026C38.0153 31.5214 34.7612 34.6585 34.7612 38.5252C34.7612 38.7806 34.7915 39.025 34.818 39.273C37.232 37.606 40.7169 36.1906 45.6585 36.1906C45.9914 36.1906 46.2639 36.4533 46.2639 36.7743C46.2639 37.0953 45.9914 37.3579 45.6585 37.3579C36.1461 37.3579 32.1126 42.9792 31.2196 45.0912C30.9699 45.6858 31.265 46.3643 31.8818 46.6087C32.5023 46.8568 33.2061 46.5686 33.4634 45.9777C33.5201 45.8463 34.2542 44.2304 36.1839 42.6728C37.4098 44.2741 39.7407 45.8026 42.8017 45.4889C48.7422 45.073 52.9233 39.9369 52.9233 33.6481C52.9233 31.8169 52.5147 29.92 51.7957 28.3734Z" fill="url(#paint1_linear)"/>
<defs>
<linearGradient id="paint0_linear" x1="18.5367" y1="84.8913" x2="-21.3042" y2="32.4444" gradientUnits="userSpaceOnUse">
<stop stop-color="#0043A7"/>
<stop offset="1" stop-color="#6377E3"/>
</linearGradient>
<linearGradient id="paint1_linear" x1="41.9439" y1="56.8497" x2="31.5527" y2="33.3547" gradientUnits="userSpaceOnUse">
<stop stop-color="#0043A7"/>
<stop offset="1" stop-color="#6377E3"/>
</linearGradient>
</defs>
</svg>
