<svg width="60" height="44" viewBox="0 0 60 44" fill="none" xmlns="http://www.w3.org/2000/svg">
<path d="M46.3636 39.4022C48.6273 39.4022 50.4545 37.5815 50.4545 35.3261C50.4545 33.0707 48.6273 31.25 46.3636 31.25C44.1 31.25 42.2727 33.0707 42.2727 35.3261C42.2727 37.5815 44.1 39.4022 46.3636 39.4022ZM50.4545 14.9457H43.6364V21.7391H55.8L50.4545 14.9457ZM13.6364 39.4022C15.9 39.4022 17.7273 37.5815 17.7273 35.3261C17.7273 33.0707 15.9 31.25 13.6364 31.25C11.3727 31.25 9.54545 33.0707 9.54545 35.3261C9.54545 37.5815 11.3727 39.4022 13.6364 39.4022ZM51.8182 10.8696L60 21.7391V35.3261H54.5455C54.5455 39.837 50.8909 43.4783 46.3636 43.4783C41.8364 43.4783 38.1818 39.837 38.1818 35.3261H21.8182C21.8182 39.837 18.1636 43.4783 13.6364 43.4783C9.10909 43.4783 5.45455 39.837 5.45455 35.3261H0V5.43478C0 2.41848 2.42727 0 5.45455 0H43.6364V10.8696H51.8182ZM5.45455 5.43478V29.8913H7.52727C9.02727 28.2337 11.2091 27.1739 13.6364 27.1739C16.0636 27.1739 18.2455 28.2337 19.7455 29.8913H38.1818V5.43478H5.45455ZM10.9091 17.663L15 13.587L19.0909 17.663L28.6364 8.15217L32.7273 12.2283L19.0909 25.8152L10.9091 17.663Z" fill="url(#paint0_linear)"/>
<defs>
<linearGradient id="paint0_linear" x1="29.771" y1="67.1078" x2="8.32221" y2="9.74277" gradientUnits="userSpaceOnUse">
<stop stop-color="#0043A7"/>
<stop offset="1" stop-color="#6377E3"/>
</linearGradient>
</defs>
</svg>
