<svg width="52" height="56" viewBox="0 0 52 56" fill="none" xmlns="http://www.w3.org/2000/svg">
<path d="M48.8042 9.15285L28.0042 0.401999C27.3706 0.136607 26.6914 0 26.0054 0C25.3195 0 24.6403 0.136607 24.0067 0.401999L3.20667 9.15285C1.2675 9.96231 0 11.8766 0 13.9986C0 35.7117 12.4042 50.7194 23.9958 55.598C25.2742 56.134 26.715 56.134 27.9933 55.598C37.2775 51.6929 52 38.2057 52 13.9986C52 11.8766 50.7325 9.96231 48.8042 9.15285ZM26.0108 48.8161L26 7.14016L45.0558 15.1581C44.6983 31.7191 36.1617 43.7187 26.0108 48.8161Z" fill="url(#paint0_linear)"/>
<defs>
<linearGradient id="paint0_linear" x1="25.8015" y1="86.4348" x2="-9.95433" y2="22.0879" gradientUnits="userSpaceOnUse">
<stop stop-color="#0043A7"/>
<stop offset="1" stop-color="#6377E3"/>
</linearGradient>
</defs>
</svg>
