<svg width="50" height="56" viewBox="0 0 50 56" fill="none" xmlns="http://www.w3.org/2000/svg">
<path d="M48.3362 38.85L44.0309 36.3344L47.7761 35.3172C48.6987 35.0656 49.2478 34.1031 48.9952 33.1734L48.5449 31.4781C48.3033 30.5484 47.3478 29.9906 46.4252 30.2422L37.6716 32.6156L29.7858 28L37.6826 23.3844L46.4362 25.7578C47.3587 26.0094 48.3033 25.4516 48.5559 24.5219L49.0062 22.8266C49.2478 21.8969 48.7097 20.9344 47.7871 20.6828L44.0418 19.6656L48.3472 17.15C49.171 16.6688 49.4565 15.5969 48.9842 14.7547L48.1166 13.2344C47.6443 12.3922 46.5789 12.1078 45.7552 12.5891L41.4498 15.1047L42.4493 11.3094C42.6909 10.3797 42.1528 9.41719 41.2302 9.16563L39.5607 8.71719C38.6382 8.46562 37.6936 9.02344 37.441 9.95312L35.1016 18.8125L27.2048 23.4281V14.1859L33.6079 7.7C34.2779 7.02188 34.2779 5.90625 33.6079 5.22813L32.3888 3.99219C31.7188 3.31406 30.6205 3.31406 29.9505 3.99219L27.2157 6.77031V1.75C27.2157 0.7875 26.4469 0 25.4914 0H23.767C22.8115 0 22.0427 0.7875 22.0427 1.75V6.79219L19.3079 4.01406C18.6379 3.33594 17.5396 3.33594 16.8697 4.01406L15.6066 5.25C14.9366 5.92812 14.9366 7.04375 15.6066 7.72187L22.0097 14.2078V23.45L14.1129 18.8344L11.7735 9.975C11.5319 9.04531 10.5763 8.4875 9.65376 8.73906L7.98433 9.1875C7.06175 9.43906 6.5126 10.4016 6.76521 11.3313L7.76467 15.1266L3.4593 12.6109C2.63556 12.1297 1.58119 12.4141 1.09793 13.2562L0.230264 14.7766C-0.242009 15.6188 0.0325686 16.6797 0.867284 17.1719L5.17266 19.6875L1.42742 20.6828C0.504842 20.9344 -0.0443131 21.8969 0.208298 22.8266L0.658605 24.5219C0.900233 25.4516 1.85576 26.0094 2.77834 25.7578L11.5319 23.3844L19.4287 28L11.5319 32.6156L2.77834 30.2422C1.85576 29.9906 0.911216 30.5484 0.658605 31.4781L0.208298 33.1734C-0.03333 34.1031 0.504842 35.0656 1.42742 35.3172L5.17266 36.3344L0.867284 38.85C0.0435517 39.3313 -0.242009 40.4031 0.230264 41.2453L1.09793 42.7656C1.5702 43.6078 2.63556 43.8922 3.4593 43.4109L7.76467 40.8953L6.76521 44.6906C6.52358 45.6203 7.06175 46.5828 7.98433 46.8344L9.65376 47.2828C10.5763 47.5344 11.5209 46.9766 11.7735 46.0469L14.1129 37.1875L22.0097 32.5719V41.8141L15.6066 48.3C14.9366 48.9781 14.9366 50.0938 15.6066 50.7719L16.8257 52.0078C17.4957 52.6859 18.594 52.6859 19.264 52.0078L21.9988 49.2297V54.25C21.9988 55.2125 22.7676 56 23.7231 56H25.4475C26.403 56 27.1718 55.2125 27.1718 54.25V49.2078L29.9066 51.9859C30.5766 52.6641 31.6749 52.6641 32.3448 51.9859L33.564 50.75C34.2339 50.0719 34.2339 48.9562 33.564 48.2781L27.1608 41.7922V32.55L35.0577 37.1656L37.3971 46.025C37.6387 46.9547 38.5942 47.5125 39.5168 47.2609L41.1862 46.8125C42.1088 46.5609 42.658 45.5984 42.4054 44.6688L41.4059 40.8734L45.7113 43.3891C46.535 43.8703 47.5894 43.5859 48.0726 42.7437L48.9403 41.2234C49.4455 40.4031 49.171 39.3313 48.3362 38.85Z" fill="url(#paint0_linear)"/>
<defs>
<linearGradient id="paint0_linear" x1="24.4182" y1="86.4348" x2="-12.3525" y2="23.8093" gradientUnits="userSpaceOnUse">
<stop stop-color="#0043A7"/>
<stop offset="1" stop-color="#6377E3"/>
</linearGradient>
</defs>
</svg>
