<svg width="56" height="43" viewBox="0 0 56 43" fill="none" xmlns="http://www.w3.org/2000/svg">
<path d="M23.5187 0.788996L13.7877 10.7496H2.62497C1.17468 10.7496 0 11.9523 0 13.4372V29.5623C0 31.0461 1.17468 32.2498 2.62497 32.2498H13.7877L23.5187 42.2105C25.1626 43.8935 27.9997 42.711 27.9997 40.3102V2.6893C27.9997 0.286204 25.1604 -0.891828 23.5187 0.788996ZM50.4914 21.4997L55.4832 16.389C56.1723 15.6835 56.1723 14.539 55.4832 13.8336L52.9873 11.2782C52.2982 10.5727 51.1804 10.5727 50.4914 11.2782L45.4996 16.389L40.5077 11.2782C39.8187 10.5727 38.7009 10.5727 38.0118 11.2782L35.5159 13.8336C34.8269 14.539 34.8269 15.6835 35.5159 16.389L40.5077 21.4997L35.517 26.6094C34.8279 27.3149 34.8279 28.4593 35.517 29.1648L38.0129 31.7202C38.702 32.4257 39.8198 32.4257 40.5088 31.7202L45.4996 26.6105L50.4914 31.7213C51.1804 32.4268 52.2982 32.4268 52.9873 31.7213L55.4832 29.1659C56.1723 28.4604 56.1723 27.316 55.4832 26.6105L50.4914 21.4997Z" fill="url(#paint0_linear)"/>
<defs>
<linearGradient id="paint0_linear" x1="27.7863" y1="66.3696" x2="5.64187" y2="10.4777" gradientUnits="userSpaceOnUse">
<stop stop-color="#0043A7"/>
<stop offset="1" stop-color="#6377E3"/>
</linearGradient>
</defs>
</svg>
