<svg width="60" height="61" viewBox="0 0 60 61" fill="none" xmlns="http://www.w3.org/2000/svg">
<path d="M32.9956 54.0026C33.7913 54.0026 34.5544 54.3187 35.1171 54.8813C35.6797 55.444 35.9958 56.2071 35.9958 57.0027C35.9958 57.7984 35.6797 58.5615 35.1171 59.1242C34.5544 59.6868 33.7913 60.0029 32.9956 60.0029C32.2 60.0029 31.4369 59.6868 30.8742 59.1242C30.3116 58.5615 29.9955 57.7984 29.9955 57.0027C29.9955 56.2071 30.3116 55.444 30.8742 54.8813C31.4369 54.3187 32.2 54.0026 32.9956 54.0026ZM22.4952 51.0025C23.2909 51.0025 24.054 51.3186 24.6166 51.8812C25.1792 52.4438 25.4953 53.2069 25.4953 54.0026C25.4953 54.7983 25.1792 55.5614 24.6166 56.124C24.054 56.6867 23.2909 57.0027 22.4952 57.0027C21.6995 57.0027 20.9364 56.6867 20.3738 56.124C19.8112 55.5614 19.4951 54.7983 19.4951 54.0026C19.4951 53.2069 19.8112 52.4438 20.3738 51.8812C20.9364 51.3186 21.6995 51.0025 22.4952 51.0025ZM43.4961 51.0025C44.2918 51.0025 45.0549 51.3186 45.6175 51.8812C46.1801 52.4438 46.4962 53.2069 46.4962 54.0026C46.4962 54.7983 46.1801 55.5614 45.6175 56.124C45.0549 56.6867 44.2918 57.0027 43.4961 57.0027C42.7004 57.0027 41.9373 56.6867 41.3747 56.124C40.812 55.5614 40.496 54.7983 40.496 54.0026C40.496 53.2069 40.812 52.4438 41.3747 51.8812C41.9373 51.3186 42.7004 51.0025 43.4961 51.0025ZM33.0016 12.0278C42.5061 12.0278 47.9003 18.3191 48.6833 25.9184H48.9233C50.3762 25.9164 51.8152 26.2007 53.1582 26.755C54.5012 27.3092 55.7218 28.1226 56.7504 29.1487C57.779 30.1748 58.5954 31.3934 59.1529 32.7351C59.7104 34.0767 59.9982 35.515 59.9998 36.9679C59.9978 38.4205 59.7098 39.8585 59.1521 41.1998C58.5943 42.5411 57.7779 43.7594 56.7494 44.7851C55.7208 45.8109 54.5003 46.624 53.1575 47.1781C51.8147 47.7322 50.3759 48.0163 48.9233 48.0144H17.077C15.6244 48.0163 14.1856 47.7322 12.8428 47.1781C11.5 46.624 10.2795 45.8109 9.25093 44.7851C8.22239 43.7594 7.40595 42.5411 6.84824 41.1998C6.29053 39.8585 6.00247 38.4205 6.0005 36.9679C6.00207 35.515 6.28985 34.0767 6.84738 32.7351C7.40491 31.3934 8.22129 30.1748 9.24987 29.1487C10.2785 28.1226 11.4991 27.3092 12.8421 26.755C14.1851 26.2007 15.6241 25.9164 17.077 25.9184H17.317C18.106 18.2681 23.4972 12.0278 33.0016 12.0278ZM7.09555 24.4934C7.30417 24.9958 7.3237 25.5568 7.1505 26.0725C6.9773 26.5883 6.62311 27.0238 6.15351 27.2985L5.87749 27.4335L3.09938 28.5855C2.57329 28.8 1.98556 28.8074 1.45418 28.6065C0.922796 28.4055 0.487098 28.011 0.234552 27.5021C-0.0179947 26.9932 -0.0686951 26.4076 0.0926283 25.8629C0.253952 25.3182 0.615357 24.8547 1.10429 24.5654L1.3773 24.4274L4.15542 23.2753C4.42845 23.1622 4.72108 23.104 5.01661 23.104C5.31213 23.104 5.60476 23.1622 5.87779 23.2753C6.15081 23.3884 6.39888 23.5542 6.60782 23.7632C6.81677 23.9722 6.9825 24.2203 7.09555 24.4934ZM26.5574 9.99373L26.0443 10.1677C20.6891 12.0578 16.855 16.183 15.1989 21.6372L14.9859 22.3873L14.8119 23.1013L14.1938 23.2183C12.3989 23.5952 10.6962 24.3231 9.18364 25.3604C7.80858 22.997 7.29496 20.2301 7.73017 17.5306C8.16538 14.8312 9.52253 12.3659 11.5707 10.5544C13.6188 8.74285 16.2314 7.69699 18.9638 7.59477C21.6962 7.49255 24.3796 8.34029 26.5574 9.99373ZM2.81736 10.0867L3.13238 10.1917L5.9105 11.3438C6.43151 11.5634 6.85074 11.9712 7.08477 12.4859C7.31879 13.0006 7.35047 13.5845 7.17349 14.1215C6.9965 14.6585 6.62384 15.1092 6.12964 15.3839C5.63544 15.6586 5.05594 15.7372 4.50644 15.604L4.18842 15.502L1.4103 14.3499C0.887909 14.1309 0.467324 13.723 0.232518 13.2075C-0.00228851 12.692 -0.0340383 12.107 0.143607 11.5691C0.321252 11.0312 0.695221 10.5802 1.19085 10.3059C1.68648 10.0317 2.26731 9.95451 2.81736 10.0897V10.0867ZM14.2629 1.12836L14.3979 1.40137L15.5499 4.17949C15.7674 4.70604 15.7771 5.29551 15.577 5.82894C15.3769 6.36236 14.9819 6.80002 14.4718 7.05359C13.9616 7.30716 13.3742 7.35776 12.8282 7.19517C12.2821 7.03258 11.8181 6.66892 11.5297 6.17757L11.3917 5.90156L10.2397 3.12344C10.0253 2.59735 10.0178 2.00962 10.2187 1.47824C10.4197 0.946861 10.8142 0.511163 11.3231 0.258617C11.832 0.00607021 12.4176 -0.0446302 12.9623 0.116693C13.507 0.278017 13.9706 0.639422 14.2599 1.12836H14.2629ZM27.3224 0.171315C27.8205 0.378057 28.2278 0.756829 28.4701 1.23865C28.7124 1.72047 28.7735 2.27329 28.6425 2.79643L28.5405 3.11144L27.3884 5.88956C27.1688 6.41057 26.761 6.8298 26.2463 7.06383C25.7316 7.29786 25.1477 7.32953 24.6107 7.15255C24.0737 6.97557 23.623 6.6029 23.3483 6.1087C23.0736 5.6145 22.995 5.035 23.1282 4.4855L23.2332 4.16749L24.3823 1.38937C24.4953 1.11632 24.6611 0.868212 24.87 0.659219C25.0789 0.450227 25.327 0.284441 25.6 0.171331C25.8731 0.0582212 26.1657 2.70106e-06 26.4612 0C26.7567 -2.70087e-06 27.0494 0.0582104 27.3224 0.171315Z" fill="url(#paint0_linear)"/>
<defs>
<linearGradient id="paint0_linear" x1="29.7709" y1="92.6131" x2="-7.00036" y2="21.3522" gradientUnits="userSpaceOnUse">
<stop stop-color="#0043A7"/>
<stop offset="1" stop-color="#6377E3"/>
</linearGradient>
</defs>
</svg>
