<svg width="72" height="43" viewBox="0 0 72 43" fill="none" xmlns="http://www.w3.org/2000/svg">
<path d="M59.0896 7.48886C58.9894 7.33848 58.8535 7.21518 58.6941 7.1299C58.5348 7.04462 58.3568 7 58.1761 7C57.9953 7 57.8174 7.04462 57.658 7.1299C57.4987 7.21518 57.3628 7.33848 57.2625 7.48886L50.6745 17.371C50.5644 17.5363 50.5013 17.7284 50.4918 17.9268C50.4823 18.1252 50.5268 18.3224 50.6206 18.4975C50.7143 18.6726 50.8538 18.819 51.0242 18.9211C51.1945 19.0232 51.3894 19.0772 51.588 19.0773H51.8032L47.3629 26.1814C47.259 26.3476 47.2015 26.5386 47.1964 26.7345C47.1912 26.9304 47.2386 27.1242 47.3336 27.2956C47.4286 27.467 47.5678 27.6099 47.7367 27.7094C47.9056 27.8089 48.098 27.8613 48.294 27.8613H48.7134L45.1164 35.0555C45.0325 35.2229 44.9928 35.409 45.0011 35.596C45.0094 35.7831 45.0654 35.9649 45.1637 36.1242C45.2621 36.2836 45.3996 36.4151 45.5631 36.5063C45.7266 36.5975 45.9107 36.6454 46.098 36.6454H55.9801V42.1355H60.3721V36.6454H70.2542C70.4414 36.6454 70.6256 36.5975 70.7891 36.5063C70.9526 36.4151 71.0901 36.2836 71.1884 36.1242C71.2868 35.9649 71.3428 35.7831 71.3511 35.596C71.3594 35.409 71.3197 35.2229 71.2358 35.0555L67.6409 27.8613H68.0604C68.2564 27.8613 68.4488 27.8089 68.6177 27.7094C68.7866 27.6099 68.9257 27.467 69.0207 27.2956C69.1158 27.1242 69.1632 26.9304 69.158 26.7345C69.1529 26.5386 69.0954 26.3476 68.9915 26.1814L64.5489 19.0773H64.7641C64.9628 19.0772 65.1576 19.0232 65.328 18.9211C65.4984 18.819 65.6378 18.6726 65.7316 18.4975C65.8253 18.3224 65.8698 18.1252 65.8603 17.9268C65.8508 17.7284 65.7877 17.5363 65.6777 17.371L59.0896 7.48886Z" fill="url(#paint0_linear)"/>
<path d="M40 18.9022V38.5926C39.9996 39.2101 39.8359 39.816 39.5262 40.3462C39.2166 40.8764 38.7724 41.3111 38.2408 41.6045C37.7592 41.871 37.2189 42.007 36.6713 41.9997H26.6594C26.2174 41.9997 25.7935 41.8202 25.4809 41.5007C25.1684 41.1812 24.9928 40.7479 24.9928 40.296V30.0724C24.9928 29.6206 24.8172 29.1872 24.5046 28.8677C24.1921 28.5482 23.7682 28.3687 23.3261 28.3687H16.6595C16.2175 28.3687 15.7936 28.5482 15.481 28.8677C15.1684 29.1872 14.9928 29.6206 14.9928 30.0724V40.296C14.9928 40.7479 14.8173 41.1812 14.5047 41.5007C14.1921 41.8202 13.7682 41.9997 13.3262 41.9997H3.33395C2.8614 42.001 2.39404 41.8989 1.9632 41.7005C1.53236 41.5021 1.14799 41.2118 0.835844 40.8491C0.28789 40.2013 -0.0093243 39.371 0.000223069 38.5146V18.902C0.000586258 18.4272 0.0978021 17.9578 0.285662 17.5237C0.473521 17.0895 0.747895 16.7002 1.09126 16.3805L17.7564 0.891223C18.3685 0.318046 19.1685 7.88543e-05 19.9987 1.46646e-08C20.8288 -7.88249e-05 21.6289 0.317737 22.2411 0.890798L38.9092 16.3807C39.2524 16.7004 39.5267 17.0898 39.7146 17.5239C39.9024 17.9581 39.9996 18.4275 40 18.9022Z" fill="url(#paint1_linear)"/>
<defs>
<linearGradient id="paint0_linear" x1="58.0755" y1="61.2308" x2="33.4023" y2="25.3667" gradientUnits="userSpaceOnUse">
<stop stop-color="#0043A7"/>
<stop offset="1" stop-color="#6377E3"/>
</linearGradient>
<linearGradient id="paint1_linear" x1="19.8473" y1="64.8261" x2="-6.60731" y2="15.9971" gradientUnits="userSpaceOnUse">
<stop stop-color="#0043A7"/>
<stop offset="1" stop-color="#6377E3"/>
</linearGradient>
</defs>
</svg>
