<svg width="56" height="57" viewBox="0 0 56 57" fill="none" xmlns="http://www.w3.org/2000/svg">
<path d="M28.0014 17.5008C22.2151 17.5008 17.5008 22.2151 17.5008 28.0014C17.5008 33.7876 22.2151 38.5019 28.0014 38.5019C33.7876 38.5019 38.5019 33.7876 38.5019 28.0014C38.5019 22.2151 33.7876 17.5008 28.0014 17.5008ZM54.9527 26.306L44.5944 21.1323L48.2586 10.1505C48.7508 8.66292 47.3398 7.25191 45.8632 7.75506L34.8814 11.4193L29.6968 1.05005C28.9967 -0.350017 27.006 -0.350017 26.306 1.05005L21.1323 11.4084L10.1396 7.74413C8.65198 7.25191 7.24098 8.66292 7.74413 10.1396L11.4084 21.1213L1.05005 26.306C-0.350017 27.006 -0.350017 28.9967 1.05005 29.6968L11.4084 34.8704L7.74413 45.8632C7.25191 47.3507 8.66292 48.7617 10.1396 48.2586L21.1213 44.5944L26.295 54.9527C26.9951 56.3527 28.9858 56.3527 29.6858 54.9527L34.8595 44.5944L45.8413 48.2586C47.3289 48.7508 48.7399 47.3398 48.2367 45.8632L44.5725 34.8814L54.9308 29.7077C56.3527 28.9967 56.3527 27.006 54.9527 26.306ZM37.9003 37.9003C32.4422 43.3584 23.5605 43.3584 18.1024 37.9003C12.6444 32.4422 12.6444 23.5605 18.1024 18.1024C23.5605 12.6444 32.4422 12.6444 37.9003 18.1024C43.3584 23.5605 43.3584 32.4422 37.9003 37.9003Z" fill="url(#paint0_linear)"/>
<defs>
<linearGradient id="paint0_linear" x1="27.7863" y1="86.439" x2="-6.53354" y2="19.9287" gradientUnits="userSpaceOnUse">
<stop stop-color="#0043A7"/>
<stop offset="1" stop-color="#6377E3"/>
</linearGradient>
</defs>
</svg>
